<svg width="61" height="60" viewBox="0 0 61 60" fill="none" xmlns="http://www.w3.org/2000/svg">
<circle cx="30.5" cy="30" r="30" fill="#EFF6F1"/>
<path d="M34.1585 22.5472C35.2231 22.5503 36.2431 22.9589 36.9958 23.6838C37.7486 24.4086 38.1729 25.3909 38.1761 26.416V34.1527C38.1729 35.1778 37.7486 36.16 36.9958 36.8849C36.2431 37.6098 35.2231 38.0183 34.1585 38.0214H26.1243C25.0598 38.0183 24.0397 37.6098 23.287 36.8849C22.5342 36.16 22.1099 35.1778 22.1068 34.1527V26.416C22.1099 25.3909 22.5342 24.4086 23.287 23.6838C24.0397 22.9589 25.0598 22.5503 26.1243 22.5472H34.1585ZM34.1585 21H26.1243C23.0309 21 20.5 23.4371 20.5 26.416V34.1527C20.5 37.1315 23.0309 39.5686 26.1243 39.5686H34.1585C37.252 39.5686 39.7828 37.1315 39.7828 34.1527V26.416C39.7828 23.4371 37.252 21 34.1585 21Z" fill="#274C5B"/>
<path d="M35.3633 26.4168C35.1249 26.4168 34.8919 26.3487 34.6937 26.2212C34.4956 26.0937 34.3411 25.9124 34.2499 25.7004C34.1587 25.4883 34.1348 25.255 34.1813 25.0298C34.2278 24.8047 34.3426 24.5979 34.5111 24.4356C34.6797 24.2733 34.8944 24.1628 35.1282 24.118C35.362 24.0732 35.6043 24.0962 35.8245 24.184C36.0447 24.2719 36.2329 24.4206 36.3654 24.6115C36.4978 24.8023 36.5685 25.0267 36.5685 25.2562C36.5688 25.4087 36.5379 25.5598 36.4774 25.7008C36.417 25.8417 36.3282 25.9698 36.2163 26.0776C36.1043 26.1854 35.9713 26.2709 35.8249 26.3291C35.6785 26.3873 35.5217 26.4171 35.3633 26.4168ZM30.141 27.1902C30.7767 27.1902 31.3981 27.3717 31.9266 27.7118C32.4551 28.0519 32.8671 28.5352 33.1103 29.1007C33.3536 29.6663 33.4172 30.2885 33.2932 30.8889C33.1692 31.4893 32.8631 32.0407 32.4136 32.4735C31.9641 32.9064 31.3915 33.2011 30.768 33.3206C30.1446 33.44 29.4984 33.3787 28.9111 33.1444C28.3238 32.9102 27.8219 32.5135 27.4687 32.0046C27.1156 31.4956 26.9271 30.8972 26.9271 30.2851C26.928 29.4646 27.2669 28.6779 27.8694 28.0977C28.472 27.5174 29.2889 27.1911 30.141 27.1902ZM30.141 25.643C29.1876 25.643 28.2555 25.9152 27.4628 26.4253C26.67 26.9354 26.0521 27.6604 25.6873 28.5086C25.3224 29.3569 25.2269 30.2903 25.4129 31.1908C25.599 32.0912 26.0581 32.9184 26.7323 33.5676C27.4065 34.2168 28.2654 34.659 29.2005 34.8381C30.1357 35.0172 31.105 34.9253 31.9858 34.5739C32.8667 34.2226 33.6196 33.6276 34.1493 32.8642C34.679 32.1008 34.9617 31.2032 34.9617 30.2851C34.9617 29.0539 34.4538 27.8732 33.5498 27.0026C32.6457 26.132 31.4196 25.643 30.141 25.643Z" fill="#274C5B"/>
</svg>
