<svg width="61" height="60" viewBox="0 0 61 60" fill="none" xmlns="http://www.w3.org/2000/svg">
<circle cx="30.5" cy="30" r="30" fill="#EFF6F1"/>
<path fill-rule="evenodd" clip-rule="evenodd" d="M39.7828 30.2843C39.7828 25.1572 35.4657 21 30.1414 21C24.8171 21 20.5 25.1572 20.5 30.2843C20.5 34.9182 24.0251 38.7592 28.6349 39.4563V32.9689H26.1863V30.2843H28.6349V28.2389C28.6349 25.9124 30.0747 24.6263 32.2767 24.6263C33.3317 24.6263 34.4353 24.8078 34.4353 24.8078V27.0928H33.2189C32.0219 27.0928 31.6475 27.8082 31.6475 28.5435V30.2843H34.3212L33.8942 32.9689H31.6479V39.4572C36.2577 38.7604 39.7828 34.9194 39.7828 30.2843Z" fill="#274C5B"/>
</svg>
