<svg width="61" height="60" viewBox="0 0 61 60" fill="none" xmlns="http://www.w3.org/2000/svg">
<circle cx="30.5" cy="30" r="30" fill="#EFF6F1"/>
<path d="M41.1602 23.9584C40.3852 24.2952 39.5652 24.517 38.7261 24.617C39.6079 24.1006 40.2711 23.2803 40.5912 22.3099C39.7575 22.7974 38.8469 23.1394 37.8984 23.3214C37.4991 22.9028 37.0187 22.5698 36.4866 22.3427C35.9546 22.1155 35.3818 21.9989 34.8033 22C32.4609 22 30.5654 23.868 30.5654 26.1708C30.5637 26.4911 30.6004 26.8104 30.6747 27.122C28.9951 27.0433 27.3504 26.6148 25.8458 25.864C24.3413 25.1132 23.01 24.0566 21.9372 22.7619C21.5608 23.3963 21.3618 24.1203 21.3608 24.858C21.3608 26.3042 22.1154 27.5826 23.2547 28.3315C22.5797 28.3155 21.9185 28.1368 21.3273 27.8107V27.8623C21.3273 29.8853 22.7907 31.5682 24.7276 31.9513C24.3634 32.0484 23.988 32.0976 23.6111 32.0977C23.3436 32.0981 23.0767 32.0722 22.8144 32.0202C23.3528 33.6773 24.92 34.8825 26.7764 34.9169C25.2679 36.0794 23.4159 36.7078 21.5115 36.7032C21.1734 36.7027 20.8357 36.6825 20.5 36.6429C22.4374 37.88 24.6895 38.5344 26.9882 38.5281C34.7943 38.5281 39.0589 32.1708 39.0589 26.6572C39.0589 26.4764 39.0541 26.2956 39.0455 26.1191C39.8733 25.5303 40.5893 24.7986 41.1602 23.9584Z" fill="#274C5B"/>
</svg>
