<svg width="61" height="60" viewBox="0 0 61 60" fill="none" xmlns="http://www.w3.org/2000/svg">
<circle cx="30.5" cy="30" r="30" fill="#EFF6F1"/>
<path d="M30.2966 20C24.8866 20 20.5 24.3847 20.5 29.7923C20.5 33.801 22.9142 37.2458 26.3649 38.7627C26.3386 38.0807 26.3605 37.2589 26.5354 36.5157C26.7235 35.7201 27.795 31.178 27.795 31.178C27.795 31.178 27.4801 30.5529 27.4801 29.6305C27.4801 28.1792 28.3198 27.095 29.3695 27.095C30.2617 27.095 30.6903 27.7639 30.6903 28.5639C30.6903 29.46 30.1173 30.7977 29.8243 32.0392C29.5794 33.0797 30.3447 33.9234 31.3725 33.9234C33.2269 33.9234 34.4777 31.5409 34.4777 28.7169C34.4777 26.5704 33.0301 24.9661 30.4016 24.9661C27.432 24.9661 25.5776 27.1825 25.5776 29.6567C25.5776 30.5092 25.8313 31.1125 26.2249 31.5759C26.4042 31.7901 26.4305 31.8775 26.3649 32.1223C26.3168 32.3015 26.2118 32.7343 26.1637 32.9092C26.0981 33.1584 25.8969 33.2458 25.6738 33.154C24.3049 32.5944 23.6664 31.0994 23.6664 29.4119C23.6664 26.6316 26.015 23.2961 30.6684 23.2961C34.4077 23.2961 36.87 26.0021 36.87 28.9048C36.87 32.7474 34.7314 35.6152 31.5824 35.6152C30.5241 35.6152 29.5313 35.0425 29.1901 34.3955C29.1901 34.3955 28.6216 36.6512 28.4991 37.0884C28.2936 37.8447 27.8868 38.5966 27.5151 39.1867C28.4169 39.4526 29.3521 39.5881 30.2923 39.5889C35.7023 39.5889 40.0889 35.2042 40.0889 29.7966C40.0889 24.389 35.7067 20 30.2966 20Z" fill="#274C5B"/>
</svg>
